<svg xmlns="http://www.w3.org/2000/svg" xmlns:xlink="http://www.w3.org/1999/xlink" width="101" height="94" viewBox="0 0 101 94">
  <defs>
    <filter id="Ellipse_2" x="0" y="0" width="101" height="94" filterUnits="userSpaceOnUse">
      <feOffset dy="3" input="SourceAlpha"/>
      <feGaussianBlur stdDeviation="3" result="blur"/>
      <feFlood flood-opacity="0.2"/>
      <feComposite operator="in" in2="blur"/>
      <feComposite in="SourceGraphic"/>
    </filter>
  </defs>
  <g id="Group_16" data-name="Group 16" transform="translate(-866 -1051)">
    <g transform="matrix(1, 0, 0, 1, 866, 1051)" filter="url(#Ellipse_2)">
      <ellipse id="Ellipse_2-2" data-name="Ellipse 2" cx="41.5" cy="38" rx="41.5" ry="38" transform="translate(9 6)" fill="#fff"/>
    </g>
    <g id="design" transform="translate(893 1072)">
      <path id="Path_32" data-name="Path 32" d="M306.916,346a.916.916,0,1,0,.916.916A.917.917,0,0,0,306.916,346Zm0,0" transform="translate(-277.962 -314.297)" fill="#01b39f"/>
      <path id="Path_33" data-name="Path 33" d="M42.332,0H4.581A4.587,4.587,0,0,0,0,4.581V32.62A4.587,4.587,0,0,0,4.581,37.2H18.875v4.215h-.916A4.583,4.583,0,0,0,13.378,46a.916.916,0,0,0,.916.916H32.62A.916.916,0,0,0,33.536,46a4.587,4.587,0,0,0-4.581-4.581h-.916V37.2H42.332a4.587,4.587,0,0,0,4.581-4.581V4.581A4.587,4.587,0,0,0,42.332,0ZM4.581,1.833H42.332a2.752,2.752,0,0,1,2.749,2.749V28.038H40.866V6.964a.916.916,0,0,0-.916-.916H32.62a.916.916,0,0,0-.916.916V28.038H27.117c-.01-.948-.034-1.882-.074-2.788a58.936,58.936,0,0,0-.716-7.331,4.582,4.582,0,0,0,1.251-5.976L24.4,6.442a.916.916,0,0,0-1.587,0l-3.177,5.5a4.581,4.581,0,0,0,1.008,5.782,58.164,58.164,0,0,0-.772,7.523c-.041.916-.067,1.851-.077,2.79H15.21V14.294a.911.911,0,0,0-.091-.4s0-.01-.006-.014l-3.665-7.33a.916.916,0,0,0-1.639,0l-3.665,7.33-.006.014a.911.911,0,0,0-.091.4V28.038H1.833V4.581A2.752,2.752,0,0,1,4.581,1.833ZM33.536,28.038V7.88h5.5V9.713h-.916a.916.916,0,0,0,0,1.833h.916v2.749h-.916a.916.916,0,0,0,0,1.833h.916v2.749h-.916a.916.916,0,0,0,0,1.833h.916v3.665h-.916a.916.916,0,1,0,0,1.833h.916v1.833Zm-9.927-9.226a4.588,4.588,0,0,0,.989-.11c.17,1.09.42,3.018.568,5.671H21.754c.155-2.651.417-4.609.6-5.736a4.587,4.587,0,0,0,1.257.175Zm0-1.833a2.752,2.752,0,0,1-2.383-4.12l2.383-4.126,2.382,4.126a2.75,2.75,0,0,1-2.382,4.121ZM21.67,26.206h3.575c.019.6.033,1.214.039,1.833H21.629c.007-.614.021-1.227.041-1.833ZM11.545,28.038V15.21h1.833V28.038Zm-3.665,0V15.21H9.713V28.038Zm.566-14.66,2.183-4.365,2.183,4.365Zm23.1,31.7H15.366a2.754,2.754,0,0,1,2.593-1.833h11a2.753,2.753,0,0,1,2.592,1.833Zm-5.341-3.665h-5.5V37.2h5.5Zm16.127-6.047H4.581A2.752,2.752,0,0,1,1.832,32.62V29.871H45.081V32.62A2.752,2.752,0,0,1,42.332,35.368Zm0,0" fill="#01b39f"/>
      <path id="Path_34" data-name="Path 34" d="M212.414,346h-5.5a.916.916,0,1,0,0,1.833h5.5a.916.916,0,1,0,0-1.833Zm0,0" transform="translate(-187.125 -314.297)" fill="#01b39f"/>
    </g>
  </g>
</svg>
