<svg xmlns="http://www.w3.org/2000/svg" xmlns:xlink="http://www.w3.org/1999/xlink" width="101" height="94" viewBox="0 0 101 94">
  <defs>
    <filter id="Ellipse_3" x="0" y="0" width="101" height="94" filterUnits="userSpaceOnUse">
      <feOffset dy="3" input="SourceAlpha"/>
      <feGaussianBlur stdDeviation="3" result="blur"/>
      <feFlood flood-opacity="0.2"/>
      <feComposite operator="in" in2="blur"/>
      <feComposite in="SourceGraphic"/>
    </filter>
  </defs>
  <g id="Group_38" data-name="Group 38" transform="translate(-1367 -1051)">
    <g transform="matrix(1, 0, 0, 1, 1367, 1051)" filter="url(#Ellipse_3)">
      <ellipse id="Ellipse_3-2" data-name="Ellipse 3" cx="41.5" cy="38" rx="41.5" ry="38" transform="translate(9 6)" fill="#0e776b"/>
    </g>
    <g id="help" transform="translate(1394.999 1072)">
      <g id="Group_21" data-name="Group 21" transform="translate(6.882 42.281)">
        <g id="Group_20" data-name="Group 20">
          <path id="Path_55" data-name="Path 55" d="M79.606,473.074l-1.352-1.9a.9.9,0,1,0-1.465,1.04l1.352,1.9a.9.9,0,1,0,1.465-1.04Z" transform="translate(-76.624 -470.791)" fill="#fff"/>
        </g>
      </g>
      <g id="Group_23" data-name="Group 23" transform="translate(0.001 14.051)">
        <g id="Group_22" data-name="Group 22" transform="translate(0)">
          <path id="Path_56" data-name="Path 56" d="M20.226,187.3l-1.471-7.013a13.226,13.226,0,0,0-5.594-8.3l-3.142-2.112a3.16,3.16,0,0,0-4.006.409V159.458a3.006,3.006,0,0,0-4.888-2.345A2.992,2.992,0,0,0,0,159.458v13.925a8.7,8.7,0,0,0,1.614,5.063l1.6,2.256a.9.9,0,1,0,1.465-1.04l-1.6-2.256A6.912,6.912,0,0,1,1.8,173.383V159.458a1.21,1.21,0,1,1,2.421,0v11.048a6.275,6.275,0,0,0,1.618,4.213c.045.054.091.107.139.158.6.632,1.3,1.377,1.958,2.079l.925.984.009.009,1.386,1.475a.9.9,0,1,0,1.309-1.23c-.016-.017-1.068-1.137-2.268-2.413L7.236,173.59l-.015-.017a1.515,1.515,0,0,1,.029-1.986,1.358,1.358,0,0,1,1.768-.226l3.141,2.112A11.439,11.439,0,0,1,17,180.656l1.472,7.013a.9.9,0,1,0,1.758-.369Z" transform="translate(-0.001 -156.451)" fill="#fff"/>
        </g>
      </g>
      <g id="Group_25" data-name="Group 25" transform="translate(5.02 39.657)">
        <g id="Group_24" data-name="Group 24">
          <path id="Path_57" data-name="Path 57" d="M57.519,441.96l-.006-.008A.9.9,0,0,0,56.051,443l.006.008a.9.9,0,0,0,1.462-1.043Z" transform="translate(-55.884 -441.575)" fill="#fff"/>
        </g>
      </g>
      <g id="Group_27" data-name="Group 27" transform="translate(25.738 14.051)">
        <g id="Group_26" data-name="Group 26">
          <path id="Path_58" data-name="Path 58" d="M305.7,157.116a3.006,3.006,0,0,0-4.888,2.345v10.822a3.16,3.16,0,0,0-4.006-.409l-3.142,2.112a13.225,13.225,0,0,0-5.594,8.3L286.6,187.3a.9.9,0,1,0,1.758.369l1.471-7.013a11.439,11.439,0,0,1,4.838-7.181l3.142-2.112a1.358,1.358,0,0,1,1.768.226,1.515,1.515,0,0,1,.031,1.984l-.017.019-4.328,4.6a.9.9,0,1,0,1.309,1.23c.012-.013,3.682-3.915,4.278-4.547.049-.051.095-.1.139-.158a6.275,6.275,0,0,0,1.618-4.213V159.461a1.21,1.21,0,1,1,2.421,0v13.925a6.913,6.913,0,0,1-1.283,4.023l-6.785,9.558a.9.9,0,1,0,1.465,1.04l6.785-9.558a8.7,8.7,0,0,0,1.614-5.063V159.461A2.993,2.993,0,0,0,305.7,157.116Z" transform="translate(-286.58 -156.454)" fill="#fff"/>
        </g>
      </g>
      <g id="Group_29" data-name="Group 29" transform="translate(8.388 4.85)">
        <g id="Group_28" data-name="Group 28">
          <path id="Path_59" data-name="Path 59" d="M119.369,66.363l-1.6-.382v-.286A4.017,4.017,0,0,0,119.49,62.4V60.324a4.016,4.016,0,0,0-6.627-3.055,5.244,5.244,0,0,0-9.719.007,4.016,4.016,0,0,0-6.636,3.048V62.4a4.017,4.017,0,0,0,1.719,3.293v.286l-1.6.382a4.207,4.207,0,0,0-3.24,4.105v1.677a.9.9,0,0,0,.9.9h4.127c-.006.109-.011.218-.011.329V76.6a.9.9,0,0,0,.9.9h5.4a.9.9,0,1,0,0-1.8h-.928V73.848a.9.9,0,1,0-1.8,0V75.7H100.2V73.372a3.718,3.718,0,0,1,2.861-3.627l2.465-.591,1.649,3.752a.9.9,0,0,0,.822.537h0a.9.9,0,0,0,.822-.537l1.648-3.747,2.457.587a3.718,3.718,0,0,1,2.863,3.628V75.7h-1.776V73.848a.9.9,0,0,0-1.8,0V75.7H111.2a.9.9,0,0,0,0,1.8h5.488a.9.9,0,0,0,.9-.9V73.375c0-.111,0-.222-.011-.331h4.139a.9.9,0,0,0,.9-.9V70.468A4.207,4.207,0,0,0,119.369,66.363Zm-3.9-8.262a2.226,2.226,0,0,1,2.218,2.077h-1.249a6.546,6.546,0,0,1-3.011-.734A2.226,2.226,0,0,1,115.471,58.1Zm-2.223,4.169c0-.044,0-.087,0-.131v-.8a8.342,8.342,0,0,0,3.19.635h1.253V62.4a2.223,2.223,0,1,1-4.447,0Zm-8.692-3.024h0a3.45,3.45,0,0,1,6.856-.548l-1.512-.888a.9.9,0,0,0-1.143.2,3.869,3.869,0,0,1-2.973,1.387h-1.228ZM100.528,58.1a2.227,2.227,0,0,1,2.041,1.343,6.546,6.546,0,0,1-3.011.734H98.31A2.226,2.226,0,0,1,100.528,58.1ZM98.3,61.974h1.253a8.343,8.343,0,0,0,3.193-.636V62.4a2.223,2.223,0,0,1-4.447,0ZM102.643,68a5.508,5.508,0,0,0-3.816,3.249h-3.64v-.779a2.417,2.417,0,0,1,1.861-2.358l2.287-.546a.9.9,0,0,0,.689-.873v-.3a3.9,3.9,0,0,0,1,0v.256c0,.013,0,.027,0,.04a.9.9,0,0,0,.73.884l1.34.321Zm2.505-1.394a4.214,4.214,0,0,0-.719-.242l-1.6-.384V65.7a4.053,4.053,0,0,0,.778-.711,5.287,5.287,0,0,0,1.545,1.549Zm3.9,1.32L108,70.314l-1.053-2.4v-.641a5.263,5.263,0,0,0,2.1,0Zm-1.043-2.335a3.453,3.453,0,0,1-3.45-3.45V61.19h1.228a5.659,5.659,0,0,0,3.816-1.474l1.852,1.088V62.27A3.453,3.453,0,0,1,108.005,65.588Zm2.839,1.019v-.061a5.285,5.285,0,0,0,1.558-1.552,4.052,4.052,0,0,0,.772.7v.28l-1.6.384A4.228,4.228,0,0,0,110.845,66.607Zm9.968,4.64H117.16A5.507,5.507,0,0,0,113.341,68l-.451-.108,1.347-.323a.9.9,0,0,0,.734-.884c0-.007,0-.014,0-.021v-.276a3.9,3.9,0,0,0,1,0v.3a.9.9,0,0,0,.689.873l2.287.546a2.417,2.417,0,0,1,1.861,2.358Z" transform="translate(-93.39 -54)" fill="#fff"/>
        </g>
      </g>
      <g id="Group_31" data-name="Group 31" transform="translate(22.094 26.554)">
        <g id="Group_30" data-name="Group 30">
          <path id="Path_60" data-name="Path 60" d="M247.533,295.932a.9.9,0,1,0,.263.636A.905.905,0,0,0,247.533,295.932Z" transform="translate(-246 -295.67)" fill="#fff"/>
        </g>
      </g>
      <g id="Group_33" data-name="Group 33" transform="translate(22.093)">
        <g id="Group_32" data-name="Group 32">
          <path id="Path_61" data-name="Path 61" d="M246.891,0a.9.9,0,0,0-.9.9V2.242a.9.9,0,0,0,1.8,0V.9A.9.9,0,0,0,246.891,0Z" transform="translate(-245.993)" fill="#fff"/>
        </g>
      </g>
      <g id="Group_35" data-name="Group 35" transform="translate(17.208 1.725)">
        <g id="Group_34" data-name="Group 34">
          <path id="Path_62" data-name="Path 62" d="M194.074,20.417l-.942-.941a.9.9,0,1,0-1.269,1.271l.942.941a.9.9,0,1,0,1.269-1.271Z" transform="translate(-191.599 -19.213)" fill="#fff"/>
        </g>
      </g>
      <g id="Group_37" data-name="Group 37" transform="translate(26.023 1.749)">
        <g id="Group_36" data-name="Group 36">
          <path id="Path_63" data-name="Path 63" d="M292.213,19.732a.9.9,0,0,0-1.27,0l-.935.936a.9.9,0,1,0,1.271,1.269l.935-.936A.9.9,0,0,0,292.213,19.732Z" transform="translate(-289.746 -19.469)" fill="#fff"/>
        </g>
      </g>
    </g>
  </g>
</svg>
