<svg xmlns="http://www.w3.org/2000/svg" xmlns:xlink="http://www.w3.org/1999/xlink" width="79" height="79" viewBox="0 0 79 79">
  <defs>
    <filter id="Ellipse_8" x="0" y="0" width="79" height="79" filterUnits="userSpaceOnUse">
      <feOffset dy="3" input="SourceAlpha"/>
      <feGaussianBlur stdDeviation="3" result="blur"/>
      <feFlood flood-opacity="0.2"/>
      <feComposite operator="in" in2="blur"/>
      <feComposite in="SourceGraphic"/>
    </filter>
  </defs>
  <g id="Left_Arrow" data-name="Left Arrow" transform="translate(-172 -1668)">
    <g transform="matrix(1, 0, 0, 1, 172, 1668)" filter="url(#Ellipse_8)">
      <circle id="Ellipse_8-2" data-name="Ellipse 8" cx="30.5" cy="30.5" r="30.5" transform="translate(9 6)" fill="#dd6003"/>
    </g>
    <g id="back" transform="translate(97.52 1689)">
      <g id="Group_13" data-name="Group 13" transform="translate(101.48 0)">
        <path id="Path_52" data-name="Path 52" d="M107.791,15.991,119.75,4.031a1.753,1.753,0,0,0,0-2.473L118.7.511a1.752,1.752,0,0,0-2.473,0L101.99,14.75a1.765,1.765,0,0,0,0,2.482l14.226,14.226a1.752,1.752,0,0,0,2.473,0l1.048-1.047a1.751,1.751,0,0,0,0-2.473Z" transform="translate(-101.48 0)" fill="#fff"/>
      </g>
    </g>
  </g>
</svg>
