<svg xmlns="http://www.w3.org/2000/svg" xmlns:xlink="http://www.w3.org/1999/xlink" width="79" height="79" viewBox="0 0 79 79">
  <defs>
    <filter id="Ellipse_9" x="0" y="0" width="79" height="79" filterUnits="userSpaceOnUse">
      <feOffset dy="3" input="SourceAlpha"/>
      <feGaussianBlur stdDeviation="3" result="blur"/>
      <feFlood flood-opacity="0.2"/>
      <feComposite operator="in" in2="blur"/>
      <feComposite in="SourceGraphic"/>
    </filter>
  </defs>
  <g id="Group_18" data-name="Group 18" transform="translate(-1670 -1668)">
    <g transform="matrix(1, 0, 0, 1, 1670, 1668)" filter="url(#Ellipse_9)">
      <circle id="Ellipse_9-2" data-name="Ellipse 9" cx="30.5" cy="30.5" r="30.5" transform="translate(9 6)" fill="#dd6003"/>
    </g>
    <g id="back" transform="translate(1703.219 1689)">
      <g id="Group_13" data-name="Group 13">
        <path id="Path_52" data-name="Path 52" d="M113.95,15.991,101.99,4.031a1.753,1.753,0,0,1,0-2.473L103.038.511a1.752,1.752,0,0,1,2.473,0l14.24,14.239a1.765,1.765,0,0,1,0,2.482L105.525,31.458a1.752,1.752,0,0,1-2.473,0L102,30.41a1.751,1.751,0,0,1,0-2.473Z" transform="translate(-101.48 0)" fill="#fff"/>
      </g>
    </g>
  </g>
</svg>
