<svg xmlns="http://www.w3.org/2000/svg" xmlns:xlink="http://www.w3.org/1999/xlink" width="101" height="94" viewBox="0 0 101 94">
  <defs>
    <filter id="Ellipse_1" x="0" y="0" width="101" height="94" filterUnits="userSpaceOnUse">
      <feOffset dy="3" input="SourceAlpha"/>
      <feGaussianBlur stdDeviation="3" result="blur"/>
      <feFlood flood-opacity="0.2"/>
      <feComposite operator="in" in2="blur"/>
      <feComposite in="SourceGraphic"/>
    </filter>
  </defs>
  <g id="Group_15" data-name="Group 15" transform="translate(-365 -1042)">
    <g transform="matrix(1, 0, 0, 1, 365, 1042)" filter="url(#Ellipse_1)">
      <ellipse id="Ellipse_1-2" data-name="Ellipse 1" cx="41.5" cy="38" rx="41.5" ry="38" transform="translate(9 6)" fill="#0e776b"/>
    </g>
    <g id="data" transform="translate(393 1064.5)">
      <path id="Path_2" data-name="Path 2" d="M35.433,132.3a.63.63,0,1,0,.891-.891l-1.53-1.53,1.53-1.529a.63.63,0,1,0-.891-.891l-1.975,1.975a.63.63,0,0,0,0,.891Zm0,0" transform="translate(-30.476 -116.112)" fill="#fff"/>
      <path id="Path_3" data-name="Path 3" d="M114.645,129.872l-1.53,1.53a.63.63,0,1,0,.891.891l1.975-1.975a.63.63,0,0,0,0-.891l-1.975-1.975a.63.63,0,1,0-.891.891Zm0,0" transform="translate(-103.437 -116.109)" fill="#fff"/>
      <path id="Path_4" data-name="Path 4" d="M76.817,132.432a.63.63,0,0,0,.817-.356l1.552-3.951a.63.63,0,1,0-1.172-.461l-1.552,3.951A.63.63,0,0,0,76.817,132.432Zm0,0" transform="translate(-69.993 -116.107)" fill="#fff"/>
      <path id="Path_5" data-name="Path 5" d="M38.146,219.475H42.39a.63.63,0,0,0,0-1.26H38.146a.63.63,0,0,0,0,1.26Zm0,0" transform="translate(-34.362 -199.41)" fill="#fff"/>
      <path id="Path_6" data-name="Path 6" d="M123.6,218.215h-7.462a.63.63,0,0,0,0,1.26H123.6a.63.63,0,1,0,0-1.26Zm0,0" transform="translate(-105.801 -199.411)" fill="#fff"/>
      <path id="Path_7" data-name="Path 7" d="M38.146,251.081h1.808a.63.63,0,0,0,0-1.26H38.146a.63.63,0,0,0,0,1.26Zm0,0" transform="translate(-34.362 -228.359)" fill="#fff"/>
      <path id="Path_8" data-name="Path 8" d="M177.478,249.82a.63.63,0,0,0,0,1.26h1.1a.63.63,0,1,0,0-1.26Zm0,0" transform="translate(-161.98 -228.358)" fill="#fff"/>
      <path id="Path_9" data-name="Path 9" d="M91.98,250.451a.63.63,0,0,0-.63-.63H85.942a.63.63,0,0,0,0,1.26H91.35A.63.63,0,0,0,91.98,250.451Zm0,0" transform="translate(-78.14 -228.359)" fill="#fff"/>
      <path id="Path_10" data-name="Path 10" d="M213.7,250.451a.63.63,0,0,0,.63.63H216.4a.63.63,0,1,0,0-1.26h-2.062A.63.63,0,0,0,213.7,250.451Zm0,0" transform="translate(-195.736 -228.359)" fill="#fff"/>
      <path id="Path_11" data-name="Path 11" d="M166.029,150.538H168.2a.63.63,0,1,0,0-1.26h-2.175a.63.63,0,1,0,0,1.26Zm0,0" transform="translate(-151.493 -136.269)" fill="#fff"/>
      <path id="Path_12" data-name="Path 12" d="M220.876,150.538h13.272a.63.63,0,0,0,0-1.26H220.876a.63.63,0,1,0,0,1.26Zm0,0" transform="translate(-201.729 -136.269)" fill="#fff"/>
      <path id="Path_13" data-name="Path 13" d="M296.19,182.246h-5.376a.63.63,0,0,0,0,1.26h5.376a.63.63,0,0,0,0-1.26Zm0,0" transform="translate(-265.787 -166.466)" fill="#fff"/>
      <path id="Path_14" data-name="Path 14" d="M246.7,182.246h-1.848a.63.63,0,0,0,0,1.26H246.7a.63.63,0,0,0,0-1.26Zm0,0" transform="translate(-223.693 -166.466)" fill="#fff"/>
      <path id="Path_15" data-name="Path 15" d="M166.029,183.506h4.527a.63.63,0,0,0,0-1.26h-4.527a.63.63,0,1,0,0,1.26Zm0,0" transform="translate(-151.493 -166.465)" fill="#fff"/>
      <path id="Path_16" data-name="Path 16" d="M104.12,281.16H99.877a.63.63,0,1,0,0,1.26h4.244a.63.63,0,0,0,0-1.26Zm0,0" transform="translate(-90.903 -257.064)" fill="#fff"/>
      <path id="Path_17" data-name="Path 17" d="M41.406,281.16H38.146a.63.63,0,0,0,0,1.26h3.261a.63.63,0,1,0,0-1.26Zm0,0" transform="translate(-34.362 -257.064)" fill="#fff"/>
      <path id="Path_18" data-name="Path 18" d="M181.463,281.16h-5.544a.63.63,0,0,0,0,1.26h5.544a.63.63,0,0,0,0-1.26Zm0,0" transform="translate(-160.552 -257.064)" fill="#fff"/>
      <path id="Path_19" data-name="Path 19" d="M298.009,242.668h-3.032a.63.63,0,0,0,0,1.26h3.032a.63.63,0,0,0,0-1.26Zm0,0" transform="translate(-269.6 -221.808)" fill="#fff"/>
      <path id="Path_20" data-name="Path 20" d="M393.607,243.928h4.28a.63.63,0,1,0,0-1.26h-4.28a.63.63,0,0,0,0,1.26Zm0,0" transform="translate(-359.938 -221.807)" fill="#fff"/>
      <path id="Path_21" data-name="Path 21" d="M357.467,242.668h-.981a.63.63,0,1,0,0,1.26h.981a.63.63,0,0,0,0-1.26Zm0,0" transform="translate(-325.938 -221.808)" fill="#fff"/>
      <path id="Path_22" data-name="Path 22" d="M294.978,325.588h3.032a.63.63,0,0,0,0-1.26h-3.032a.63.63,0,0,0,0,1.26Zm0,0" transform="translate(-269.601 -296.603)" fill="#fff"/>
      <path id="Path_23" data-name="Path 23" d="M393.607,325.588h4.28a.63.63,0,1,0,0-1.26h-4.28a.63.63,0,1,0,0,1.26Zm0,0" transform="translate(-359.938 -296.603)" fill="#fff"/>
      <path id="Path_24" data-name="Path 24" d="M356.49,325.588h.981a.63.63,0,1,0,0-1.26h-.981a.63.63,0,0,0,0,1.26Zm0,0" transform="translate(-325.941 -296.603)" fill="#fff"/>
      <path id="Path_25" data-name="Path 25" d="M298.009,405.988h-3.032a.63.63,0,1,0,0,1.26h3.032a.63.63,0,0,0,0-1.26Zm0,0" transform="translate(-269.6 -371.397)" fill="#fff"/>
      <path id="Path_26" data-name="Path 26" d="M397.886,405.988h-4.28a.63.63,0,0,0,0,1.26h4.28a.63.63,0,1,0,0-1.26Zm0,0" transform="translate(-359.937 -371.397)" fill="#fff"/>
      <path id="Path_27" data-name="Path 27" d="M357.467,405.988h-.981a.63.63,0,1,0,0,1.26h.981a.63.63,0,1,0,0-1.26Zm0,0" transform="translate(-325.938 -371.397)" fill="#fff"/>
      <path id="Path_28" data-name="Path 28" d="M40.274.5H2.772A2.776,2.776,0,0,0,0,3.273V33.756a2.776,2.776,0,0,0,2.773,2.773H5.143a.63.63,0,0,0,0-1.26H2.772A1.514,1.514,0,0,1,1.26,33.756v-2.39H24.212v1.086h-.5a1.24,1.24,0,0,0-1.239,1.239v1.578H8.974a.63.63,0,0,0,0,1.26h6.057v2.26h-1.9a2.3,2.3,0,0,0-2.3,2.3V42.45a1.051,1.051,0,0,0,1.05,1.05H31.12a1.051,1.051,0,0,0,1.05-1.05V41.089a2.3,2.3,0,0,0-2.3-2.3h-1.9v-.8H39.614a1.24,1.24,0,0,0,1.239-1.239v-.3A2.777,2.777,0,0,0,43,33.756l.048-30.483A2.775,2.775,0,0,0,40.274.5ZM23.733,29.866v-3.02H39.593v3.02Zm1.738-4.28V24.26H37.854v1.326Zm12.382,5.54v1.326H25.472V31.126Zm-21.563,5.4h6.183v.224a1.24,1.24,0,0,0,1.239,1.239h2.995v.8H16.291Zm13.579,3.52a1.042,1.042,0,0,1,1.041,1.041V42.24H12.087V41.089a1.043,1.043,0,0,1,1.041-1.041Zm9.723-3.317H23.733V33.712H39.592Zm2.146-2.975a1.513,1.513,0,0,1-.886,1.375V33.69a1.24,1.24,0,0,0-1.239-1.239h-.5V31.366h2.624Zm0-3.65h-.906c.013-.071.021-3.281.021-3.281a1.241,1.241,0,0,0-1.239-1.239h-.5V24.26h.5a1.241,1.241,0,0,0,1.239-1.239V19.959a1.241,1.241,0,0,0-1.239-1.239H36.055a.63.63,0,0,0,0,1.26h3.537V23H23.733V19.98h8.4a.63.63,0,0,0,0-1.26H23.712a1.241,1.241,0,0,0-1.239,1.239v3.062a1.241,1.241,0,0,0,1.239,1.239h.5v1.326h-.5a1.241,1.241,0,0,0-1.239,1.239s.008,3.21.021,3.281H1.26V9.07H41.738Zm0-22.3H1.306V3.272A1.514,1.514,0,0,1,2.819,1.76H40.226a1.514,1.514,0,0,1,1.513,1.513Zm0,0" fill="#fff"/>
      <path id="Path_29" data-name="Path 29" d="M35.122,29.262a1.849,1.849,0,1,0,1.849,1.849,1.851,1.851,0,0,0-1.849-1.849Zm0,2.438a.589.589,0,1,1,.589-.589A.59.59,0,0,1,35.122,31.7Zm0,0" transform="translate(-30.476 -26.344)" fill="#fff"/>
      <path id="Path_30" data-name="Path 30" d="M91.107,29.262a1.849,1.849,0,1,0,1.849,1.849A1.851,1.851,0,0,0,91.107,29.262Zm0,2.438a.589.589,0,1,1,.589-.589A.589.589,0,0,1,91.107,31.7Zm0,0" transform="translate(-81.754 -26.344)" fill="#fff"/>
      <path id="Path_31" data-name="Path 31" d="M147.094,29.262a1.849,1.849,0,1,0,1.849,1.849A1.851,1.851,0,0,0,147.094,29.262Zm0,2.438a.589.589,0,1,1,.589-.589A.59.59,0,0,1,147.094,31.7Zm0,0" transform="translate(-133.035 -26.344)" fill="#fff"/>
    </g>
  </g>
</svg>
